<?xml version="1.0" encoding="utf-8"?>
<!-- Generator: Adobe Illustrator 28.0.0, SVG Export Plug-In . SVG Version: 6.00 Build 0)  -->
<svg version="1.1" id="Слой_1" xmlns="http://www.w3.org/2000/svg" xmlns:xlink="http://www.w3.org/1999/xlink" x="0px" y="0px"
	 viewBox="0 0 1079 430" style="enable-background:new 0 0 1079 430;" xml:space="preserve">
<style type="text/css">
	.st0{fill:#B8AE9C;}
	.st1{fill:none;stroke:#B8AE9C;stroke-width:5;}
</style>
<path class="st0" d="M565.3,226.2c-0.3,1.3-0.8,2.4-1.5,3.3c-0.7,0.9-2.3,1.4-4.7,1.4h-65v-2.2c2.3-0.3,4.4-0.7,6.1-1.2
	s3.3-1,4.5-1.8c1.2-0.9,2.1-2,2.7-3.3c0.7-1.4,1.1-3.2,1.2-5.5c0.1-1.8,0.1-4.5,0.1-8.1c0.1-3.6,0.1-7.4,0.1-11.4
	c0-4.1,0-8-0.1-11.6c0-3.8,0-6.7,0-8.7c0-2,0-4.2,0-6.4c0-2.3,0-4.6,0-6.8c0-2.3,0-4.5-0.1-6.5c0-2.1,0-4.1-0.1-5.9
	c-0.1-2.3-0.3-4.1-0.8-5.5c-0.4-1.5-1.1-2.6-2-3.3c-0.9-0.9-2-1.5-3.5-1.9s-3.2-0.8-5.4-1.2v-2h39.6v2.2c-4.3,0.4-7.3,1.5-9.2,3.1
	c-1.9,1.6-2.9,4.5-3.2,8.6c-0.1,1.5-0.2,3.2-0.3,5.2c0,2,0,4.4,0,7.2l-0.1,24.4c0,1.1,0,2.6,0,4.6c0.1,2,0.1,4.1,0.1,6.5
	c0,2.3,0,4.7,0,7c0.1,2.4,0.1,4.6,0.1,6.5c0,1.8,0.2,3.5,0.5,5c0.3,1.5,1,2.9,1.9,4c0.9,1.1,2.2,2,3.8,2.6c1.7,0.6,3.8,0.8,6.4,0.6
	c2.6-0.2,4.6-0.3,5.8-0.3c1.2-0.1,2.1-0.1,2.8-0.1c0.7-0.1,1.3-0.1,1.9-0.1c0.7-0.1,1.8-0.2,3.5-0.4c2.2-0.2,4.1-0.5,5.6-0.9
	s2.9-1.2,4.1-2.3c1.2-1.1,2.3-2.6,3.2-4.5c1-1.9,2.1-4.4,3.2-7.6l2.3,0.5L565.3,226.2z M566.3,215.2c-0.3-0.1-0.6,0.3-0.9,1.2
	c-0.3,0.8-0.7,1.8-1.4,3.1c-0.9,1.7-1.9,3.2-3.1,4.6c-1.1,1.3-2.6,1.9-4.6,1.9c-1.4,0.2-2,0.4-1.9,0.8c0,0.1,0.3,0.1,0.8,0.1
	c0.6,0,1.3,0,2,0c0.8,0,1.5,0,2.3,0c0.9-0.1,1.5-0.2,2-0.3c1.4-0.2,2.1-0.6,2.3-1.2c0.3-0.7,0.5-1.3,0.6-1.8
	c0.4-1.8,0.7-3.2,0.9-4.2c0.3-1.1,0.5-2,0.6-2.7C566.3,216.1,566.3,215.6,566.3,215.2z M522.3,154.6c0-3.2,0.3-6,1-8.3
	c0.8-2.4,2-4.1,3.8-5c0.7-0.4,1.5-0.7,2.3-0.9c0.9-0.2,1.4-0.4,1.4-0.6l-0.1-0.1c-0.1,0-0.2,0-0.4,0c-0.1-0.1-0.2-0.1-0.4-0.1
	c-0.8,0-1.7,0.2-2.8,0.5c-1.1,0.3-2.2,0.7-3.2,1.2c-0.9,0.4-1.7,0.9-2.4,1.3c-0.7,0.3-1,0.5-1,0.5c-0.8,0.3-1.5,0.4-2.3,0.4
	c-1.2,0-2.3-0.2-3.2-0.5c-0.9-0.4-1.5-0.7-2-0.8c-0.9,0-1.3,0.2-1.3,0.6c0,0.3,0.4,0.8,1.3,1.3c1.4,0.9,2.2,2,2.4,3.3
	c0.3,1.3,0.4,2.5,0.4,3.7v17.2c-0.1,8.4-0.2,16-0.3,22.9c0,3,0,5.9-0.1,8.8c0,2.9,0,5.6,0,8.1c0,2.4,0,4.5,0,6.3
	c0.1,1.7,0.2,2.9,0.3,3.5c0.2,2.3,0.7,4.1,1.5,5.5c0.9,1.3,2.2,2.3,3.7,2.9c1.5,0.7,3.4,1.2,5.5,1.4c2.1,0.2,4.5,0.3,7.2,0.3
	c0.7,0,1.5,0,2.3,0c0.9-0.1,1.7-0.2,2.4-0.3c0.8-0.2,1.4-0.3,1.8-0.5s0.5-0.4,0.3-0.6c-2.2,0.1-4.1,0.1-5.8,0.1
	c-1.6-0.1-3-0.2-4.2-0.4c-1.1-0.3-2.1-0.6-2.9-1.2c-0.8-0.5-1.5-1.2-2.2-1.9c-0.4-0.4-0.8-0.9-1.2-1.4c-0.3-0.5-0.5-1.2-0.8-2
	c-0.3-0.9-0.5-1.9-0.6-3.1c-0.2-1.3-0.3-2.9-0.3-4.9c0-0.8,0-1.9-0.1-3.3c0-1.5,0-3,0-4.7s0-3.4-0.1-5.1c0-1.7,0-3.2,0-4.5
	L522.3,154.6z M593.6,164c-0.1-2.7-0.1-5.1-0.1-7.2c0.1-2.1,0-3.9-0.1-5.4c-0.2-1.8-0.5-3.3-1-4.6c-0.4-1.4-1.2-2.5-2.2-3.5
	s-2.4-1.7-4.1-2.2c-1.7-0.6-3.9-1-6.5-1.3v-2h43.9v2c-2.5,0.3-4.6,0.7-6.4,1.2c-1.7,0.4-3.2,1.1-4.4,1.9c-1.1,0.8-2,1.8-2.6,3.2
	c-0.6,1.4-0.9,3.2-1,5.5c-0.1,1.8-0.2,3.8-0.3,6.1c0,2.3,0,4.7,0,7.2c0,2.5,0,4.9,0,7.4c0.1,2.4,0.1,4.6,0.1,6.7c0,2,0,4.9,0,8.4
	c0,3.5,0,7.2,0,11c0.1,3.8,0.1,7.3,0.1,10.8c0.1,3.4,0.2,6,0.3,7.8c0.1,2.2,0.4,4,1,5.4s1.5,2.5,2.6,3.3c1.2,0.9,2.6,1.5,4.4,1.9
	c1.8,0.3,3.9,0.7,6.3,1v2.2h-43.8v-2.2c2.6-0.3,4.8-0.7,6.5-1.4c1.7-0.7,3.1-1.5,4.1-2.6c1-1,1.7-2.2,2.2-3.6c0.5-1.5,0.9-3.1,1-4.9
	c0.2-1.5,0.3-3,0.3-4.7c0-1.8,0-4.1,0-6.8L593.6,164z M618.8,139.6c0-0.1-0.2-0.2-0.5-0.3c-0.3-0.1-0.9-0.1-1.5,0
	c-0.7,0.1-1.7,0.3-3.2,0.5c-2,0.4-3.9,1.1-5.8,1.9c-1.8,0.8-3.4,1.2-4.7,1.4c-2.2,0.3-3.9,0.1-5.1-0.4c-1.2-0.6-2-0.9-2.4-0.8
	c-0.5,0.2-0.5,0.4,0,0.6c0.6,0.3,1.4,0.7,2.3,1.3c1.5,1.1,2.3,2.4,2.7,4c0.4,1.5,0.6,4,0.6,7.4c0,1.9,0,4.4,0,7.7
	c0,3.2,0,7.3-0.1,12.5c0,5.1,0,11.4,0,18.8c0,7.3,0,16.1,0,26.4c0,1.6,0.3,2.9,1,3.8c0.7,0.9,1.5,1.5,2.6,2c1.1,0.4,2.3,0.7,3.6,0.8
	c1.3,0.1,2.5,0.1,3.7,0.1c0.4,0,0.6-0.1,0.5-0.3c0-0.2-0.2-0.4-0.5-0.6c-0.3-0.3-0.6-0.7-1-1c-0.3-0.3-0.7-0.7-1-1.2
	c-0.9-1-1.4-2.2-1.7-3.6c-0.3-1.5-0.4-2.8-0.4-4c-0.1-0.9-0.1-3.8-0.1-8.6c0-2,0-4.6,0-7.6c0-3.1,0-6.8,0-11.1c0-4.4,0-9.6,0-15.5
	s0-12.6,0.1-20.2c0-3.3,0.3-5.8,0.9-7.6c0.6-1.8,1.8-3.2,3.6-4.4c1.3-0.8,2.7-1.3,4.2-1.7C618,140,618.8,139.8,618.8,139.6z
	 M710.4,226.2c-0.3,1.3-0.8,2.4-1.5,3.3c-0.7,0.9-2.3,1.4-4.7,1.4h-65v-2.2c2.3-0.3,4.4-0.7,6.1-1.2s3.3-1,4.5-1.8
	c1.2-0.9,2.1-2,2.7-3.3c0.7-1.4,1.1-3.2,1.2-5.5c0.1-1.8,0.1-4.5,0.1-8.1c0.1-3.6,0.1-7.4,0.1-11.4c0-4.1,0-8-0.1-11.6
	c0-3.8,0-6.7,0-8.7c0-2,0-4.2,0-6.4c0-2.3,0-4.6,0-6.8c0-2.3,0-4.5-0.1-6.5c0-2.1,0-4.1-0.1-5.9c-0.1-2.3-0.3-4.1-0.8-5.5
	c-0.4-1.5-1.1-2.6-2-3.3c-0.9-0.9-2-1.5-3.5-1.9s-3.2-0.8-5.4-1.2v-2h39.6v2.2c-4.3,0.4-7.3,1.5-9.2,3.1c-1.9,1.6-2.9,4.5-3.2,8.6
	c-0.1,1.5-0.2,3.2-0.3,5.2c0,2,0,4.4,0,7.2l-0.1,24.4c0,1.1,0,2.6,0,4.6c0.1,2,0.1,4.1,0.1,6.5c0,2.3,0,4.7,0,7
	c0.1,2.4,0.1,4.6,0.1,6.5c0,1.8,0.2,3.5,0.5,5c0.3,1.5,1,2.9,1.9,4c0.9,1.1,2.2,2,3.8,2.6c1.7,0.6,3.8,0.8,6.4,0.6
	c2.6-0.2,4.6-0.3,5.8-0.3c1.2-0.1,2.1-0.1,2.8-0.1c0.7-0.1,1.3-0.1,1.9-0.1c0.7-0.1,1.8-0.2,3.5-0.4c2.2-0.2,4.1-0.5,5.6-0.9
	s2.9-1.2,4.1-2.3c1.2-1.1,2.3-2.6,3.2-4.5c1-1.9,2.1-4.4,3.2-7.6l2.3,0.5L710.4,226.2z M711.5,215.2c-0.3-0.1-0.6,0.3-0.9,1.2
	c-0.3,0.8-0.7,1.8-1.4,3.1c-0.9,1.7-1.9,3.2-3.1,4.6c-1.1,1.3-2.6,1.9-4.6,1.9c-1.4,0.2-2,0.4-1.9,0.8c0,0.1,0.3,0.1,0.8,0.1
	c0.6,0,1.3,0,2,0c0.8,0,1.5,0,2.3,0c0.9-0.1,1.5-0.2,2-0.3c1.4-0.2,2.1-0.6,2.3-1.2c0.3-0.7,0.5-1.3,0.6-1.8
	c0.4-1.8,0.7-3.2,0.9-4.2c0.3-1.1,0.5-2,0.6-2.7C711.4,216.1,711.5,215.6,711.5,215.2z M667.4,154.6c0-3.2,0.3-6,1-8.3
	c0.8-2.4,2-4.1,3.8-5c0.7-0.4,1.5-0.7,2.3-0.9c0.9-0.2,1.4-0.4,1.4-0.6l-0.1-0.1c-0.1,0-0.2,0-0.4,0c-0.1-0.1-0.2-0.1-0.4-0.1
	c-0.8,0-1.7,0.2-2.8,0.5c-1.1,0.3-2.2,0.7-3.2,1.2c-0.9,0.4-1.7,0.9-2.4,1.3c-0.7,0.3-1,0.5-1,0.5c-0.8,0.3-1.5,0.4-2.3,0.4
	c-1.2,0-2.3-0.2-3.2-0.5c-0.9-0.4-1.5-0.7-2-0.8c-0.9,0-1.3,0.2-1.3,0.6c0,0.3,0.4,0.8,1.3,1.3c1.4,0.9,2.2,2,2.4,3.3
	c0.3,1.3,0.4,2.5,0.4,3.7v17.2c-0.1,8.4-0.2,16-0.3,22.9c0,3,0,5.9-0.1,8.8c0,2.9,0,5.6,0,8.1c0,2.4,0,4.5,0,6.3
	c0.1,1.7,0.2,2.9,0.3,3.5c0.2,2.3,0.7,4.1,1.5,5.5c0.9,1.3,2.2,2.3,3.7,2.9c1.5,0.7,3.4,1.2,5.5,1.4c2.1,0.2,4.5,0.3,7.2,0.3
	c0.7,0,1.5,0,2.3,0c0.9-0.1,1.7-0.2,2.4-0.3c0.8-0.2,1.4-0.3,1.8-0.5s0.5-0.4,0.3-0.6c-2.2,0.1-4.1,0.1-5.8,0.1
	c-1.6-0.1-3-0.2-4.2-0.4c-1.1-0.3-2.1-0.6-2.9-1.2c-0.8-0.5-1.5-1.2-2.2-1.9c-0.4-0.4-0.8-0.9-1.2-1.4c-0.3-0.5-0.5-1.2-0.8-2
	c-0.3-0.9-0.5-1.9-0.6-3.1c-0.2-1.3-0.3-2.9-0.3-4.9c0-0.8,0-1.9-0.1-3.3c0-1.5,0-3,0-4.7s0-3.4-0.1-5.1c0-1.7,0-3.2,0-4.5
	L667.4,154.6z M781.5,231v-2c1.4-0.3,2.6-0.5,3.7-0.8c1.2-0.3,2.1-0.8,2.8-1.4c0.8-0.6,1.3-1.3,1.5-2.2c0.3-0.9,0.1-1.9-0.4-3.2
	c-0.4-1.5-1.1-3.3-1.9-5.5c-0.7-2-1.6-4.5-2.8-7.6c-1.1-3.2-2.5-7-4.2-11.6h-29.3c-1.6,4.2-2.9,7.5-3.8,10c-0.9,2.5-1.5,4.4-2,5.8
	c-0.6,1.5-1,2.6-1.2,3.3c-0.4,1.3-0.9,2.6-1.3,4c-0.3,1.3-0.5,2.3-0.5,3.1c0,1.3,0.3,2.3,0.9,3.1c0.6,0.8,1.4,1.4,2.3,1.8
	s2,0.7,3.1,0.9c1.1,0.2,2.2,0.3,3.3,0.4v2H717v-2c2.8-0.5,5.2-1.1,7-1.7c1.9-0.7,3.5-1.5,4.7-2.6c1.4-1.1,2.6-2.5,3.6-4.2
	c1.1-1.8,2.2-4.1,3.3-6.8c1-2.6,2.9-7.1,5.5-13.7c1.1-2.8,2.4-6.2,4-10.1c1.6-3.9,3.5-8.5,5.6-13.8c2.2-5.3,4.7-11.3,7.6-18.2
	c2.8-6.9,6-14.7,9.5-23.4h2.4c0.6,1.5,1.7,4.1,3.2,7.8c1.5,3.6,3.3,7.8,5.2,12.7c2,4.9,4.2,10.1,6.5,15.7c2.3,5.5,4.6,11,6.8,16.4
	c2.3,5.4,4.4,10.5,6.3,15.2c2,4.8,3.6,8.7,4.9,11.9c1.7,4.4,4,7.8,6.9,10.4c3,2.5,6.8,3.9,11.4,4.4v2H781.5z M813.5,227.8
	c-0.9-0.4-1.8-0.9-2.6-1.3s-1.4-0.9-1.9-1.3c-0.6-0.4-1.2-0.9-1.7-1.4c-0.6-0.6-1.2-1.3-1.7-2c-0.5-0.7-1.1-1.5-1.7-2.4
	c-0.5-0.9-1-2-1.5-3.3l-32.9-80c-0.3,0.9-0.4,1.7-0.5,2.6c0,0.9,0,1.7,0,2.4c0,0.9,0.1,1.8,0.3,2.6c0,0.6,0.1,1.4,0.4,2.3
	c0.2,0.8,0.4,1.7,0.8,2.9c0.4,1.2,1,2.6,1.7,4.4l24.6,65.2c0.2,1.5,0.7,2.7,1.7,3.8c1,1,2.1,1.9,3.3,2.7c1.3,0.9,2.7,1.7,4.4,2.3
	c0.6,0.2,1.3,0.3,2.2,0.5c0.7,0.2,1.5,0.3,2.3,0.4C811.5,228,812.5,228,813.5,227.8z M766.2,158.1c0-0.2-0.1-0.4-0.3-0.6
	c-0.1-0.3-0.2-0.5-0.3-0.5c-0.2,0-0.3,0.2-0.5,0.5l-12.2,32.6h25.1L766.2,158.1z M769.1,190.8h-17.4l13.1-34.6
	c0.2-1.3,0.3-2.3,0.3-3.1c0-0.9,0-1.5,0-1.9c0-0.5,0-0.9-0.1-1.3c-0.3,0.3-1,1.9-2.3,4.9c-0.5,1.3-1.2,2.9-2,5
	c-0.9,2-1.9,4.4-3.1,7.4c-1.1,2.9-2.4,6.4-4,10.5c-1.5,4-3.3,8.7-5.2,14.1c4.4,0.1,8,0.1,10.6,0.1c2.7,0,4.8,0,6.3-0.1
	c1.7,0,2.9,0,3.6-0.1c0.5,0,1-0.1,1.5-0.3c0.4-0.1,0.9-0.2,1.3-0.3c0.5-0.2,1-0.3,1.4-0.5L769.1,190.8z M749.1,197.2
	c0-0.3,0-0.6-0.1-0.9c-0.1-0.3-0.2-0.6-0.4-1s-0.5-0.9-0.9-1.3l-11.5,28.2c-0.3,0.6-0.4,1.2-0.4,1.7c0,0.4,0.1,0.9,0.3,1.3
	s0.4,0.9,0.6,1.3c0.7,1,2.7,1.6,6.1,1.8c0.8,0,1.1,0,1,0c0-0.1-0.2-0.3-0.6-0.5s-0.9-0.6-1.4-1.2c-0.5-0.6-0.9-1.4-1-2.3
	c-0.2-0.9-0.1-2,0.1-3.1c0.3-1.1,0.5-2,0.8-2.6c0.1-0.3,0.3-1,0.8-2.3c0.5-1.3,1.1-2.8,1.7-4.5c0.6-1.8,1.2-3.6,1.9-5.5
	c0.7-2,1.3-3.7,1.9-5.2c0.2-0.5,0.3-1,0.5-1.5C748.7,198.9,748.9,198.1,749.1,197.2z M927.7,236.6c-8.6-0.3-16-1.7-22.1-4.5
	c-6.1-2.7-11.3-6.3-15.6-10.6c-4.3-4.4-7.9-9.3-11-14.7c-3-5.5-5.7-11.1-8.2-16.8c-1.5,0.4-3.5,0.8-6.1,1c-2.6,0.3-5.1,0.3-7.4,0.3
	l0.1,13.2c0,2.7,0,5.3,0,7.7c0,2.4,0.1,4.3,0.3,5.8c0.2,1.8,0.5,3.3,0.9,4.6c0.5,1.2,1.3,2.2,2.4,3.1c1.1,0.8,2.6,1.4,4.5,1.9
	c1.9,0.5,4.4,0.9,7.4,1.3v2.2H828v-2.2c2.4-0.3,4.4-0.7,6.1-1.2c1.8-0.4,3.2-1,4.4-1.8c1.2-0.9,2.1-2,2.7-3.3s0.9-3.2,1-5.5
	c0.1-1.8,0.1-4.5,0.1-8.1s0-7.4,0-11.4c0-4.1,0-8,0-11.8c0-3.8,0-6.7,0-8.7c0-4.1,0-8.4,0-13.1c0.1-4.7,0-8.8-0.1-12.4
	c-0.1-2.3-0.5-4.1-1.2-5.5c-0.6-1.4-1.5-2.4-2.7-3.2c-1.1-0.9-2.6-1.5-4.4-1.9c-1.8-0.4-3.9-0.8-6.3-1.2v-2.2
	c4.8,0.1,9.2,0.1,13.3,0.1h16c4.4,0,9,0.2,14.1,0.6c5.1,0.3,9.9,1.3,14.2,2.8c4.4,1.5,8,3.9,10.9,7s4.4,7.5,4.4,13.1
	c0,5.2-1.6,9.6-4.9,13.3c-3.2,3.7-7.2,7-12,9.9c0.9,2.9,2.1,6.1,3.8,9.6c1.8,3.5,3.8,7,6.1,10.6s4.8,7.1,7.6,10.5
	c2.8,3.4,5.7,6.5,8.7,9.2s6,4.9,9,6.7c3.1,1.8,6,2.9,8.8,3.2V236.6z M885.5,166.7c0-4.4-0.8-8-2.3-11c-1.5-3-3.5-5.4-6-7.2
	c-2.5-1.9-5.3-3.2-8.4-4.1c-3.2-0.9-6.4-1.3-9.6-1.4c-0.2,0-0.4,0-0.6,0c-0.3,0-0.5,0.1-0.6,0.3l-0.3,0.3c-0.3,0.3-0.4,0.5-0.4,0.8
	v19.6l-0.1,18.8v5.2c3.7-0.1,7.2-0.7,10.6-1.8c3.4-1.1,6.4-2.6,9.1-4.5s4.7-4.1,6.3-6.7C884.7,172.5,885.5,169.7,885.5,166.7z
	 M865.1,228.3c-0.9-0.1-1.8-0.3-2.6-0.5c-0.8-0.3-1.6-0.8-2.6-1.4c-1-0.7-1.9-1.7-2.6-2.9c-0.7-1.4-1.1-2.5-1.3-3.3
	c-0.1-0.5-0.2-1.6-0.3-3.3c-0.1-1.5-0.2-3.6-0.3-6.5c-0.1-3-0.1-7,0-12.2l0.1-35.3V151c0-0.6,0-1.3,0-2.2c0-0.9,0-1.9,0-2.8
	c0-0.9,0-1.8,0.1-2.6c0.1-0.8,0.2-1.3,0.4-1.5c0.7-0.9,1.7-1.4,3.2-1.7c0.5-0.3,0.5-0.4-0.1-0.4h-0.8c-1.2,0.1-2.2,0.4-2.9,0.9
	c-0.7,0.5-1.5,1.1-2.4,1.7c-0.7,0.4-1.3,0.8-1.8,1c-0.5,0.2-0.9,0.4-1.3,0.8c-0.3,0.3-0.6,0.7-0.9,1.4c-0.2,0.7-0.3,1.7-0.3,3.2
	v20.4v7.3c0,3.3,0,8.4,0,15.2c0.1,6.7,0.1,16.1,0.1,28c0,0.8,0.1,1.5,0.3,2.2c0.3,0.6,0.5,1.1,0.8,1.5c0.3,0.5,0.7,1,1.2,1.4
	c1.2,1.2,2.6,2,4.4,2.6c1.8,0.5,4.1,0.9,6.9,1L865.1,228.3z M898.3,153.4c-0.9-2-1.9-3.7-2.9-5s-2.1-2.3-3.2-2.9
	c-1-0.8-2-1.3-3.1-1.7c-0.9-0.4-1.7-0.8-2.4-1s-1.5-0.5-2.4-0.6c-0.9-0.3-1.8-0.4-2.7-0.5c-0.6,0-1,0.1-1.3,0.3
	c-0.2,0.2-0.1,0.4,0.1,0.8c0.3,0.3,1.1,0.9,2.4,1.7c2.2,1.3,4,2.8,5.2,4.6c1.3,1.8,2.3,3.5,2.9,5.2c0.8,2,1.2,4,1.4,6
	c0.3,4.4-0.3,8.2-1.7,11.3c-1.4,3.1-2.9,5.5-4.7,7.4c-1.7,1.9-3.3,3.2-4.9,4.1s-2.3,1.3-2.3,1.4c0.2,0.6,0.9,0.7,2,0.3
	s2.3-0.9,3.3-1.4c2.2-1.1,4.4-2.6,6.4-4.4c2-1.8,3.5-3.2,4.4-4.4c0.6-0.8,1.3-1.9,2-3.5c0.8-1.5,1.4-3.2,1.8-5.1
	c0.5-2,0.8-4,0.8-6.1C899.5,157.6,899.1,155.5,898.3,153.4z M917.2,231.1c-2-1.3-3.8-2.6-5.6-4.1c-1.8-1.5-3.4-3-4.9-4.5
	s-2.8-2.8-4-4.1c-1.2-1.4-2.2-2.6-2.9-3.6c-2.2-2.7-4.2-5.5-6-8.2c-1.7-2.7-3.1-4.9-4.1-6.5c-0.6-0.9-1.3-2.1-2-3.6
	c-0.7-1.2-1.5-2.7-2.3-4.5c-0.8-1.9-1.6-4.1-2.6-6.8c-0.6,0.6-1,1.2-1.3,1.9c-0.2,0.6-0.3,1.2-0.5,1.8c-0.2,0.7-0.2,1.4-0.1,2.2
	c0,0.7,0.2,1.6,0.6,2.8c0.4,1.2,0.9,2.5,1.5,4c0.7,1.4,1.4,2.8,2.2,4.4s1.5,3,2.3,4.4c0.8,1.4,1.9,3,3.5,5s3.2,3.9,5,5.9
	s3.6,3.8,5.5,5.5c1.9,1.7,3.5,3,4.9,3.8c1.2,0.8,2.4,1.5,3.6,2c1,0.6,2.1,1.2,3.2,1.7c1.2,0.5,2.3,0.9,3.3,1c0.9,0.3,1.2,0.3,1.2,0
	C917.5,231.5,917.4,231.4,917.2,231.1z M1029,183.6c0,7.9-1.4,14.8-4.3,20.9c-2.9,6-6.9,11.1-11.9,15.2c-5,4.1-10.7,7.2-17.4,9.3
	c-6.6,2.1-13.5,3.2-20.9,3.2c-4.1,0-8.4-0.2-13.1-0.6c-4.6-0.4-8.8-0.6-12.5-0.6l-21.6,0.1v-2.2c2.4-0.3,4.4-0.7,6.1-1.2
	c1.8-0.4,3.2-1,4.4-1.8c1.2-0.9,2.1-2,2.7-3.3c0.6-1.4,0.9-3.2,1-5.5c0.1-1.1,0.1-2.7,0.1-4.7s0-4.3,0-6.8c0.1-2.6,0.1-5.2,0.1-7.9
	s0-5.4-0.1-7.9c0-2.6,0-4.9,0-7c0-2.2,0-4,0-5.4c0-4.1,0-8.5,0-13.2c0-4.7-0.1-8.8-0.3-12.3c-0.1-2-0.4-3.8-1-5.1s-1.5-2.5-2.7-3.3
	c-1.1-0.9-2.6-1.5-4.4-1.9c-1.8-0.5-3.9-0.9-6.3-1.3v-2.3h22c2.9,0,6.1,0,9.7,0c3.7-0.1,7.4-0.1,11.3-0.1c4,0,8.1,0.2,12.4,0.6
	c4.4,0.3,8.6,1.1,12.7,2.3c4.2,1.1,8.1,2.7,11.9,4.7c3.8,2,7.3,4.6,10.4,7.8c3.2,3.4,6,7.6,8.2,12.7
	C1027.9,170.9,1029,176.8,1029,183.6z M1011.9,186.4c0-6.7-1.3-12.8-3.8-18c-2.6-5.4-6-9.9-10.4-13.6c-4.3-3.8-9.3-6.6-15-8.6
	c-5.7-2-11.8-2.9-18.2-2.9c-2,0-3.8,0.3-5.2,0.9c-1.4,0.5-2.1,2-2.3,4.4c-0.2,3.6-0.3,7.8-0.3,12.5c0,4.7,0,9.9,0,15.7v14.8
	c0,5.5,0,10.4,0,14.5c0.1,4.1,0.2,7.2,0.3,9.3c0.4,2.4,1.2,4.3,2.2,5.8c1,1.5,2.3,2.6,3.7,3.5c1.5,0.8,3.3,1.3,5.2,1.7
	c2,0.3,4.1,0.4,6.4,0.4c6.5,0,12.1-0.9,16.8-2.8c4.7-1.9,8.6-4.5,11.6-7.9c3.1-3.5,5.3-7.7,6.8-12.7
	C1011.2,198.3,1011.9,192.7,1011.9,186.4z M986.8,226.1c-0.5,0.2-1.1,0.3-1.7,0.4c-0.5,0-1,0-1.4,0.1c-0.5,0.1-1,0.1-1.5,0.1
	c-1.2,0.2-3.1,0.4-5.8,0.8c-2.6,0.3-6.1,0.1-10.8-0.8c-3.2-0.7-5.8-2.2-7.6-4.5c-1.8-2.4-2.7-4.9-2.7-7.7c0-0.5,0-1.5,0-3.1
	c0-1.5,0-3.3,0-5.2c0-2,0-4.2-0.1-6.4c0-2.3,0-4.4,0-6.4s0-3.7,0-5.1c0-1.5,0-2.6,0-3.1c0-0.4,0-1.5,0-3.3c0-1.9,0-4,0-6.4
	c0-2.5,0-5.1,0-7.9s0-5.4,0-7.8c0-2.5,0-4.6,0-6.4c0.1-1.8,0.1-2.9,0.1-3.3c0.2-1.4,0.3-2.5,0.4-3.5c0.1-0.9,0.5-1.7,1.2-2.4
	c0.6-0.7,1.4-1.3,2.4-1.8c1.1-0.5,2.1-0.9,3.1-1c5.1-0.9,9.3-1.1,12.5-0.6c3.2,0.3,5.6,0.6,7,0.8c0.6,0,0-0.3-1.9-0.8
	c-1.9-0.5-4.9-0.9-9-1.2c-1.7-0.2-3.7-0.2-5.9,0c-2.1,0.1-3.9,0.2-5.2,0.4c-1.2,0.2-2.5,0.4-4,0.8c-1.4,0.3-2.6,0.8-3.7,1.3
	c-1.2,0.5-2.3,0.7-3.5,0.5s-2-0.4-2.8-0.6s-1.8-0.6-3.2-1s-2.2-0.6-2.4-0.6c-0.2,0.1-0.3,0.2-0.3,0.3c0,0.3,0.4,0.6,1.3,1
	c0.8,0.4,1.4,0.8,1.9,1.2c0.5,0.3,1,0.5,1.4,0.8c0.4,0.3,0.8,0.6,1.2,0.9c0.9,0.9,1.4,2,1.5,3.2c0.2,1.2,0.3,2.2,0.3,3.1
	c0,0.2,0,1.3,0,3.5c0,2,0,4.7,0,8.1c0,3.2,0,6.9-0.1,11c0,4.1,0,8.3,0,12.7c0,4.3,0,8.4,0,12.5s0,7.8,0,11.1
	c0.1,3.2,0.1,5.9,0.1,8.1c0,2,0,3.2,0.1,3.5c0.3,1.5,0.8,2.6,1.7,3.5c0.9,0.8,1.9,1.5,3.1,2c3.2,1.4,7.4,2.2,12.7,2.4
	c4.9,0.2,8.8,0.1,11.8-0.3c3.1-0.4,5.3-0.8,6.8-1.2c0.5-0.2,1-0.3,1.4-0.5C986.2,226.7,986.7,226.4,986.8,226.1z M1027.8,180.8
	c-0.3-4.9-1.1-9.1-2.4-12.7c-1.3-3.6-2.8-6.6-4.5-9.1c-1.6-2.5-3.3-4.4-5-5.9c-1.6-1.5-2.9-2.6-3.8-3.3c-1.5-1.1-3.2-2-4.9-2.6
	c-1.7-0.7-3.2-1.1-4.4-1.2c-1.2-0.2-1.9,0-2.2,0.4c-0.3,0.3,0.3,0.9,1.5,1.8c1.3,0.9,2.8,2.4,4.6,4.6c1.9,2.1,3.7,4.7,5.4,7.8
	c1.8,3,3.3,6.4,4.6,10.1c1.3,3.7,2,7.5,2.2,11.5c0.2,4.7,0.1,8.8-0.5,12.4c-0.6,3.5-1.4,6.5-2.4,9.1c-0.9,2.6-2,4.7-3.1,6.5
	c-1.1,1.7-2.1,3.1-2.9,4.1c-0.5,0.7-1.1,1.4-1.8,2c-0.7,0.6-1.3,1.2-1.9,1.8c-0.6,0.5-1.1,1-1.5,1.4c-0.3,0.3-0.5,0.6-0.5,0.6
	c0,0.3,0.5,0.2,1.7-0.1c1.1-0.4,2.4-1,4-1.8c1.5-0.9,3.2-1.9,4.9-3.1c1.7-1.3,3.2-2.6,4.4-4c1.2-1.4,2.3-3.1,3.5-5.1
	c1.1-2.1,2.1-4.5,3-7.2c0.8-2.6,1.5-5.5,1.9-8.6C1027.8,187.5,1027.9,184.2,1027.8,180.8z"/>
<path class="st0" d="M29.1,32h187v21v0.5c0,0-0.5-0.5-2-0.5s-12,0-12,0c-26.4,2-34.3,10-38,35v51l-20.5-13.5v-45l-42,26v8.5
	l-16.5,9.5V209l-7,5.5v-88V88c-2.2-22.8-10.3-30.9-40-35h85.5c0,0-53,0-85.5,0c-3.6,0-9,1.5-9,1.5V53V32z"/>
<path class="st0" d="M337.1,288h19h2l-1,58l-1,50h-19H28.6v-21c38.9,0.1,50.3-11.1,50.5-53v-97l14-8v148v1.5h2.5V130l14.5-8l0.5,272
	h2V112l19-15v270.5h3V367V132l14,8v225h3.5V192h12v104.5c2.6,45.6,8,59,23.5,63.5c34.2,12.1,52.6,11.9,84.5,4.5
	C335.6,341,337.1,288,337.1,288z"/>
<path class="st1" d="M396,430V0"/>
<path class="st0" d="M462.7,286.9c-2.5,0-4.6-0.5-6.4-1.4c-1.8-1-3.2-2.4-4.2-4.4c-1-2-1.4-4.5-1.4-7.6c0-3.2,0.5-5.8,1.6-7.8
	c1.1-2,2.6-3.5,4.5-4.4c1.9-1,4-1.4,6.5-1.4c1.6,0,3.1,0.2,4.4,0.5c1.3,0.3,2.4,0.7,3.3,1.2l-1.8,4.8c-1-0.4-2-0.7-3-1
	c-1-0.3-2-0.4-2.9-0.4c-1.4,0-2.6,0.3-3.6,1c-0.9,0.6-1.6,1.6-2.1,2.9c-0.4,1.2-0.7,2.8-0.7,4.8c0,1.9,0.2,3.4,0.7,4.7
	c0.5,1.2,1.2,2.2,2.1,2.8c0.9,0.6,2.1,0.9,3.5,0.9c1.5,0,2.8-0.2,3.9-0.5c1.1-0.4,2.2-0.8,3.2-1.4v5.2c-1,0.6-2.1,1-3.2,1.3
	C465.8,286.8,464.4,286.9,462.7,286.9z M496.4,265.1h-8.5v21.4h-6v-21.4h-8.5v-4.7h23V265.1z M515.1,260c3,0,5.5,1.1,7.3,3.4
	c1.9,2.2,2.8,5.6,2.8,10c0,2.9-0.4,5.4-1.3,7.4c-0.9,2-2.1,3.5-3.6,4.6s-3.3,1.5-5.4,1.5c-1.2,0-2.4-0.2-3.3-0.5
	c-1-0.4-1.8-0.8-2.4-1.3c-0.7-0.5-1.2-1.1-1.7-1.7h-0.4c0.1,0.6,0.2,1.2,0.3,2c0.1,0.7,0.1,1.4,0.1,2V298h-6v-37.5h4.9l0.9,3.5h0.3
	c0.5-0.7,1.1-1.4,1.7-2c0.7-0.6,1.5-1.1,2.5-1.4C512.7,260.1,513.8,260,515.1,260z M513.4,264.9c-1.4,0-2.5,0.3-3.4,0.9
	c-0.9,0.5-1.5,1.4-1.9,2.5c-0.4,1.2-0.6,2.6-0.6,4.3v0.8c0,1.9,0.2,3.4,0.5,4.7c0.4,1.3,1,2.3,1.9,2.9c0.9,0.7,2.1,1,3.6,1
	c1.3,0,2.3-0.4,3.1-1.1c0.8-0.7,1.4-1.7,1.8-3c0.4-1.3,0.6-2.9,0.6-4.7c0-2.7-0.5-4.8-1.4-6.2C516.7,265.6,515.3,264.9,513.4,264.9z
	 M554.7,273.4c0,2.2-0.3,4.1-0.9,5.8c-0.6,1.7-1.4,3.1-2.5,4.3c-1.1,1.2-2.4,2-3.9,2.6c-1.5,0.6-3.2,0.9-5.1,0.9
	c-1.8,0-3.4-0.3-4.9-0.9c-1.5-0.6-2.8-1.5-3.9-2.6c-1.1-1.2-1.9-2.6-2.5-4.3c-0.6-1.7-0.9-3.6-0.9-5.8c0-2.9,0.5-5.3,1.5-7.3
	c1-2,2.4-3.5,4.3-4.6c1.9-1.1,4.1-1.6,6.7-1.6c2.4,0,4.6,0.5,6.4,1.6c1.9,1,3.3,2.5,4.4,4.6C554.2,268.1,554.7,270.5,554.7,273.4z
	 M536.1,273.4c0,1.8,0.2,3.4,0.6,4.7c0.4,1.3,1.1,2.3,2,2.9c0.9,0.7,2.1,1,3.6,1c1.5,0,2.7-0.3,3.6-1c0.9-0.7,1.6-1.6,2-2.9
	c0.4-1.3,0.6-2.9,0.6-4.7c0-1.9-0.2-3.4-0.7-4.7c-0.4-1.3-1.1-2.2-2-2.9c-0.9-0.7-2.1-1-3.5-1c-2.2,0-3.8,0.7-4.8,2.2
	C536.6,268.5,536.1,270.6,536.1,273.4z M566.7,272.8c0,0.4,0,1-0.1,1.7c0,0.7-0.1,1.4-0.1,2.2c0,0.7-0.1,1.4-0.1,2
	c0,0.6-0.1,1-0.1,1.3l12.7-19.6h7.3v26h-5.8v-12.2c0-0.7,0-1.6,0-2.5c0.1-1,0.1-1.9,0.2-2.7c0.1-0.9,0.1-1.6,0.1-2l-12.7,19.5h-7.3
	v-26h5.8V272.8z M614.3,265.1h-8.5v21.4h-6v-21.4h-8.5v-4.7h23V265.1z M629.3,260c2.3,0,4.3,0.5,6,1.4c1.7,0.9,3,2.3,3.9,4
	c0.9,1.7,1.4,3.8,1.4,6.3v3.1h-17.2c0.1,2.4,0.7,4.2,2,5.5c1.2,1.3,3,1.9,5.2,1.9c1.7,0,3.2-0.2,4.5-0.5c1.3-0.4,2.7-0.8,4.1-1.5
	v4.8c-1.3,0.6-2.6,1.1-4,1.3c-1.4,0.3-3,0.4-4.9,0.4c-2.5,0-4.8-0.5-6.8-1.4c-2-1-3.5-2.5-4.6-4.5c-1.1-2-1.6-4.4-1.6-7.4
	c0-3,0.5-5.5,1.5-7.5c1-2,2.4-3.6,4.2-4.6C624.8,260.5,626.9,260,629.3,260z M629.3,264.4c-1.6,0-2.9,0.5-3.9,1.6
	c-1,1-1.6,2.6-1.8,4.6h11.2c0-1.2-0.2-2.3-0.6-3.2c-0.4-0.9-1-1.6-1.8-2.2C631.6,264.7,630.5,264.4,629.3,264.4z M668.7,286.5h-6
	v-21.4h-7c-0.3,3.9-0.7,7.3-1.2,10c-0.5,2.8-1.1,5-1.8,6.8c-0.7,1.7-1.6,3-2.6,3.8c-1,0.8-2.3,1.2-3.7,1.2c-0.7,0-1.3,0-1.9-0.1
	c-0.6-0.1-1.1-0.3-1.5-0.5v-4.8c0.3,0.1,0.6,0.2,0.9,0.3c0.3,0.1,0.7,0.1,1,0.1c0.5,0,1-0.2,1.5-0.6c0.5-0.4,0.9-1.2,1.3-2.2
	c0.4-1,0.8-2.4,1.2-4s0.7-3.7,0.9-6.1c0.3-2.4,0.5-5.3,0.8-8.5h18.2V286.5z M688.5,270.7c2.5,0,4.6,0.3,6.2,0.9
	c1.7,0.5,2.9,1.4,3.7,2.5c0.8,1.1,1.2,2.5,1.2,4.2c0,1.7-0.4,3.1-1.2,4.3s-2,2.2-3.6,2.8c-1.6,0.7-3.7,1-6.3,1h-12.1v-26h6v10.3
	H688.5z M693.7,278.4c0-1.2-0.5-2.1-1.4-2.6c-0.9-0.5-2.3-0.7-4-0.7h-5.7v7h5.8c1.6,0,2.8-0.3,3.8-0.8
	C693.2,280.7,693.7,279.7,693.7,278.4z M711.6,260.4v10.3h11.5v-10.3h6v26h-6v-11h-11.5v11h-6v-26H711.6z M747.3,260
	c3.4,0,5.9,0.7,7.6,2.2c1.8,1.4,2.6,3.7,2.6,6.8v17.5h-4.3l-1.2-3.6h-0.2c-0.7,0.9-1.5,1.7-2.3,2.4c-0.8,0.6-1.7,1-2.7,1.3
	c-1,0.3-2.2,0.4-3.6,0.4c-1.5,0-2.9-0.3-4.2-0.9c-1.2-0.6-2.2-1.5-2.9-2.6c-0.7-1.2-1.1-2.7-1.1-4.6c0-2.7,1-4.7,2.9-6
	c2-1.4,5-2.1,9-2.3l4.5-0.1v-1.3c0-1.7-0.4-2.8-1.2-3.6s-1.9-1.1-3.4-1.1c-1.3,0-2.6,0.2-3.8,0.6c-1.2,0.4-2.4,0.8-3.6,1.3l-1.9-4.2
	c1.3-0.7,2.7-1.2,4.4-1.6C743.8,260.2,745.5,260,747.3,260z M748.4,274.3c-2.7,0.1-4.5,0.6-5.5,1.4c-1,0.8-1.5,1.9-1.5,3.3
	c0,1.2,0.4,2.1,1.1,2.6c0.7,0.5,1.7,0.8,2.8,0.8c1.8,0,3.2-0.5,4.5-1.5c1.2-1,1.8-2.5,1.8-4.5v-2.2L748.4,274.3z M768.2,286.5h-6.7
	l7.2-10.5c-0.9-0.4-1.8-0.8-2.6-1.4c-0.8-0.6-1.5-1.5-2-2.4c-0.5-1-0.8-2.3-0.8-3.7c0-2.6,0.9-4.5,2.8-5.9c1.9-1.4,4.3-2.1,7.2-2.1
	h12v26h-6v-9.9h-4.8L768.2,286.5z M769.2,268.4c0,1.2,0.5,2.2,1.4,2.8c1,0.6,2.2,1,3.8,1h4.8v-7.3h-5.7c-1.5,0-2.7,0.3-3.4,1
	C769.5,266.6,769.2,267.4,769.2,268.4z M818.6,260.4h6.7l-10.6,12.5l11.5,13.5h-6.9l-11-13.2v13.2h-6v-26h6v12.6L818.6,260.4z
	 M852.5,273.4c0,2.2-0.3,4.1-0.9,5.8s-1.4,3.1-2.5,4.3c-1.1,1.2-2.4,2-3.9,2.6c-1.5,0.6-3.2,0.9-5.1,0.9c-1.8,0-3.4-0.3-4.9-0.9
	c-1.5-0.6-2.8-1.5-3.9-2.6c-1.1-1.2-1.9-2.6-2.5-4.3c-0.6-1.7-0.9-3.6-0.9-5.8c0-2.9,0.5-5.3,1.5-7.3c1-2,2.4-3.5,4.3-4.6
	c1.9-1.1,4.1-1.6,6.7-1.6c2.4,0,4.6,0.5,6.4,1.6c1.9,1,3.3,2.5,4.4,4.6C852,268.1,852.5,270.5,852.5,273.4z M834,273.4
	c0,1.8,0.2,3.4,0.6,4.7c0.4,1.3,1.1,2.3,2,2.9c0.9,0.7,2.1,1,3.6,1c1.5,0,2.7-0.3,3.6-1c0.9-0.7,1.6-1.6,2-2.9
	c0.4-1.3,0.6-2.9,0.6-4.7c0-1.9-0.2-3.4-0.7-4.7c-0.4-1.3-1.1-2.2-2-2.9c-0.9-0.7-2.1-1-3.5-1c-2.2,0-3.8,0.7-4.8,2.2
	C834.4,268.5,834,270.6,834,273.4z M889.7,260.4v26h-5.6v-14.2c0-1.1,0-2.1,0-3.1c0.1-1,0.1-2,0.2-2.9h-0.1l-7.7,20.3h-4.7
	l-7.7-20.3h-0.1c0.1,0.9,0.2,1.9,0.2,2.9c0,1,0,2.1,0,3.3v14h-5.6v-26h8.4l7.2,18.9l7.2-18.9H889.7z M920.5,260.4v26h-6v-21.3h-10.9
	v21.3h-6v-26H920.5z M938.6,260c3.4,0,5.9,0.7,7.6,2.2c1.8,1.4,2.6,3.7,2.6,6.8v17.5h-4.3l-1.2-3.6h-0.2c-0.7,0.9-1.5,1.7-2.3,2.4
	c-0.8,0.6-1.7,1-2.7,1.3c-1,0.3-2.2,0.4-3.6,0.4c-1.5,0-2.9-0.3-4.2-0.9c-1.2-0.6-2.2-1.5-2.9-2.6c-0.7-1.2-1.1-2.7-1.1-4.6
	c0-2.7,1-4.7,2.9-6c2-1.4,5-2.1,9-2.3l4.5-0.1v-1.3c0-1.7-0.4-2.8-1.2-3.6s-1.9-1.1-3.4-1.1c-1.3,0-2.6,0.2-3.8,0.6
	c-1.2,0.4-2.4,0.8-3.6,1.3l-1.9-4.2c1.3-0.7,2.7-1.2,4.4-1.6C935.1,260.2,936.8,260,938.6,260z M939.7,274.3
	c-2.7,0.1-4.5,0.6-5.5,1.4c-1,0.8-1.5,1.9-1.5,3.3c0,1.2,0.4,2.1,1.1,2.6c0.7,0.5,1.7,0.8,2.8,0.8c1.8,0,3.2-0.5,4.5-1.5
	c1.2-1,1.8-2.5,1.8-4.5v-2.2L939.7,274.3z M962.5,260.4v10.3H974v-10.3h6v26h-6v-11h-11.5v11h-6v-26H962.5z M993.6,272.8
	c0,0.4,0,1-0.1,1.7c0,0.7-0.1,1.4-0.1,2.2c0,0.7-0.1,1.4-0.1,2c0,0.6-0.1,1-0.1,1.3l12.7-19.6h7.3v26h-5.8v-12.2
	c0-0.7,0-1.6,0.1-2.5c0.1-1,0.1-1.9,0.2-2.7c0.1-0.9,0.1-1.6,0.2-2l-12.7,19.5h-7.3v-26h5.8V272.8z M1024.1,286.5h-6.7l7.2-10.5
	c-0.9-0.4-1.8-0.8-2.6-1.4c-0.8-0.6-1.5-1.5-2-2.4c-0.5-1-0.8-2.3-0.8-3.7c0-2.6,0.9-4.5,2.8-5.9c1.8-1.4,4.3-2.1,7.2-2.1h11.9v26
	h-6v-9.9h-4.9L1024.1,286.5z M1025,268.4c0,1.2,0.5,2.2,1.4,2.8c1,0.6,2.2,1,3.8,1h4.8v-7.3h-5.7c-1.5,0-2.7,0.3-3.4,1
	C1025.4,266.6,1025,267.4,1025,268.4z"/>
</svg>
